<svg id="Capa_1" data-name="Capa 1" xmlns="http://www.w3.org/2000/svg" viewBox="0 0 351.96 400.81"><path d="M224.72,300.24a2.73,2.73,0,0,0-3,1.42L215,314.9a10.67,10.67,0,0,0,3.51,14,11,11,0,0,0,6.26,2,10.67,10.67,0,0,0,8-3.63,12.87,12.87,0,0,0,3.26-6.05C237.91,311.26,232.88,301.86,224.72,300.24Zm5.86,19.87a7.49,7.49,0,0,1-1.94,3.46,5.17,5.17,0,0,1-7.06.79,5.23,5.23,0,0,1-1.77-7l1.8-3.49c2.24-4.36,8.92-3.12,9.26,1.77A16.46,16.46,0,0,1,230.58,320.11Z" transform="translate(-24.4 0)"/><path d="M179,301.66a2.72,2.72,0,0,0-3-1.42c-8.16,1.62-13.19,11-11.21,20.94a12.85,12.85,0,0,0,3.25,6.05,10.69,10.69,0,0,0,8,3.63,10.92,10.92,0,0,0,6.25-2,10.67,10.67,0,0,0,3.52-14Zm.19,22.7a5.16,5.16,0,0,1-7.06-.79,7.61,7.61,0,0,1-2-3.46,17,17,0,0,1-.31-4.16,4.92,4.92,0,0,1,9.29-2l1.79,3.48A5.23,5.23,0,0,1,179.18,324.36Z" transform="translate(-24.4 0)"/><path d="M151.48,217.74,147,221.67a17.19,17.19,0,0,0-4.5,19.77,11.87,11.87,0,0,1-2,12.45L131,264.62a2.73,2.73,0,0,0,.25,3.85,2.69,2.69,0,0,0,1.8.69,2.73,2.73,0,0,0,2.05-.93l9.47-10.73a17.34,17.34,0,0,0,2.92-18.21,11.76,11.76,0,0,1,3.07-13.51l4.5-3.93a2.73,2.73,0,0,0-3.6-4.11Z" transform="translate(-24.4 0)"/><path d="M260.26,253.89a11.84,11.84,0,0,1-2-12.44,17.2,17.2,0,0,0-4.49-19.78l-4.5-3.93a2.73,2.73,0,1,0-3.59,4.11l4.49,3.93a11.74,11.74,0,0,1,3.08,13.51,17.32,17.32,0,0,0,2.92,18.21l9.47,10.73a2.73,2.73,0,0,0,4.09-3.61Z" transform="translate(-24.4 0)"/><path d="M199.46,187.93a2.72,2.72,0,0,0-2.73,2.72v38.87a2.73,2.73,0,1,0,5.46,0V190.65A2.73,2.73,0,0,0,199.46,187.93Z" transform="translate(-24.4 0)"/><path d="M206.63,136.58a18.64,18.64,0,0,0-3.28,2.54,5.67,5.67,0,0,1-8,0,19.66,19.66,0,0,0-3.29-2.55,2.53,2.53,0,0,0-3.15.28,2.45,2.45,0,0,0,.53,3.86c4.63,2.63,7.05,8,7.05,13.29v1a2.45,2.45,0,0,0,2.45,2.45,2.85,2.85,0,0,0,.41,0,2.58,2.58,0,0,0,.4,0A2.45,2.45,0,0,0,202.2,155v-1c0-5.33,2.42-10.68,7.05-13.31a2.44,2.44,0,0,0,.53-3.86A2.53,2.53,0,0,0,206.63,136.58Z" transform="translate(-24.4 0)"/><path d="M307,90.55l1.56,0a68.13,68.13,0,0,0,22.95-3.89,36.09,36.09,0,0,0,10-5.05,39.09,39.09,0,0,0,13.21-19L360,46.21a70.7,70.7,0,0,1,5-11.84l10.23-19.26a9.58,9.58,0,0,0,.87-7A9.7,9.7,0,0,0,366.85.83L330.43,0A44.51,44.51,0,0,0,292,19.6a40.13,40.13,0,0,0-4.5,8.88l-.18.5a35,35,0,0,1-32,23,14.89,14.89,0,0,1-2.12-.1l-4.77-.55a12.43,12.43,0,0,1-9.8-18,2.54,2.54,0,0,0,.23-1.85,2.75,2.75,0,0,0-4-1.75L215,40.6a.77.77,0,0,1-1-1.1l7.91-11.68A2.73,2.73,0,0,0,218.21,24L200.27,35.16A2.43,2.43,0,0,1,196.8,32l1.91-3.91a2.43,2.43,0,0,0,.16-1.83,2.75,2.75,0,0,0-4.06-1.61L160.19,45.56a32.38,32.38,0,0,1-31.55,1.29,29.1,29.1,0,0,1-7-5A34.5,34.5,0,0,1,113.41,29l-.18-.5a39.59,39.59,0,0,0-4.49-8.87A44.6,44.6,0,0,0,70.32,0L33.91.83h-.29a9.71,9.71,0,0,0-8.93,7.36,9.55,9.55,0,0,0,.9,6.9L35.8,34.34a72.65,72.65,0,0,1,5,11.9l5.25,16.42a39.07,39.07,0,0,0,13.2,19,39.55,39.55,0,0,0,27,8.25,16.29,16.29,0,0,0,3.92-.76L95,87.26a2,2,0,0,1,2.18,3.12c-1.81,2.3-3.63,4.78-5.46,7.47C74,124,46.38,145.42,46.1,145.63a2.76,2.76,0,0,0-.1,4.27,2.56,2.56,0,0,0,1.71.62H68.23a2.74,2.74,0,0,1,2.51,1.6,2.67,2.67,0,0,1-.39,2.89c-8.5,10.06-17.26,24.58-10.7,36.62a29.89,29.89,0,0,0,7.87,9.54c10.49,8.09,18.69,20.5,23.1,35,.73,2.41,1.52,4.64,2.35,6.68a7,7,0,0,1-10,8.63c-25.88-15.35-40.94-56.54-41.14-57.09a2.73,2.73,0,0,0-5.29,1.09c.14,2.27,3.91,55.85,37.25,84.53A69.53,69.53,0,0,0,102,294.76a34.1,34.1,0,0,1,20.29,14.37,87.49,87.49,0,0,1,11.55,27.33,64.4,64.4,0,0,0,8.7,20.29l7.06,10.54h0c3.28,12.26,10.38,15.8,18.58,19.88,1,.51,2.09,1,3.18,1.59l20,10.27a15.59,15.59,0,0,0,14.47,0l20-10.27c1.08-.55,2.12-1.07,3.14-1.57,8.19-4.08,15.28-7.62,18.56-19.9h0l7.07-10.54A64.38,64.38,0,0,0,263,337.51,60.3,60.3,0,0,1,273.51,316l6.48-8.56A33.24,33.24,0,0,1,299,295.2a69.63,69.63,0,0,0,30-15.24c33.34-28.68,37.11-82.26,37.26-84.53,0-.05,0-.1,0-.15a2.71,2.71,0,0,0,0-.29,2.34,2.34,0,0,0,0-.26l-.06-.26-.09-.25A1.63,1.63,0,0,0,366,194l-.13-.23-.16-.21a1.54,1.54,0,0,0-.17-.19,1.8,1.8,0,0,0-.2-.19l-.2-.15-.23-.14-.26-.13-.13-.06-.1,0-.27-.06-.29,0-.09,0h-.46l-.22,0-.29.07-.23.08-.26.12-.2.13a1.88,1.88,0,0,0-.23.16l-.18.16a1.9,1.9,0,0,0-.19.21,1.56,1.56,0,0,0-.16.2c0,.07-.09.15-.14.23l-.12.26s-.05.08-.07.13c-.2.58-16.6,45.29-44.55,58.89a7,7,0,0,1-9.49-9,76.36,76.36,0,0,0,2.95-8.09c4.41-14.45,12.61-26.86,23.1-35a30.16,30.16,0,0,0,7.87-9.54c6.55-12-2.2-26.56-10.71-36.62a2.68,2.68,0,0,1-.38-2.89,2.73,2.73,0,0,1,2.5-1.6h20.53a2.51,2.51,0,0,0,1.74-.65,2.75,2.75,0,0,0-.22-4.3c-.29-.21-29-20.79-45.5-47.61-1.05-1.71-2.13-3.35-3.21-4.92A1.58,1.58,0,0,1,307,90.55Zm59-84.28.84,0a4,4,0,0,1,2.86,1.23,4.23,4.23,0,0,1,.73,5L360.13,31.78a77.76,77.76,0,0,0-5.39,12.8L349.49,61a33.7,33.7,0,0,1-11.37,16.33,31.22,31.22,0,0,1-8.49,4.21c-1.24.44-2.49.84-3.75,1.19-7,2-12.08-6.66-7-11.86l1-1.05a11.69,11.69,0,0,0,.23-16.22c-4-4.15-3.58-10.23,1.36-18.06C333.29,16.9,362.74,7.27,365.94,6.27ZM70.36,81.6a31.52,31.52,0,0,1-7.72-4.27A33.57,33.57,0,0,1,51.27,61L46,44.58a78.13,78.13,0,0,0-5.39-12.8L30.39,12.51a4.22,4.22,0,0,1,3.26-6.19c4,1.25,32.67,10.84,44.27,29.22,4.94,7.83,5.4,13.91,1.36,18.06a11.71,11.71,0,0,0-.54,16.11C83.85,75.61,77.61,84.49,70.36,81.6Zm87.37,275.69-.33.56A4.39,4.39,0,0,1,150,358l-2.9-4.33,0,0c-.14-.19-11.47-16.86-8.64-34.95a1.32,1.32,0,0,1,2.4-.52L157.21,343A13.51,13.51,0,0,1,157.73,357.29ZM211,348.12H189.52c-13,0-24.79-7.36-30-18.76-.23-.51-.45-1-.66-1.53l-.09-.22a31.8,31.8,0,0,1,4.5-30.81l.1-.15,23-34.64a16.67,16.67,0,0,1,14-7.53h0a16.62,16.62,0,0,1,14,7.47l24,35.67a31.33,31.33,0,0,1,4.82,25.27,37.53,37.53,0,0,1-1.62,4.94c-.21.52-.43,1-.66,1.53C235.76,340.76,224,348.12,211,348.12Zm3.34,7.53-1.31.83a22.58,22.58,0,0,1-11.81,3.38H201a22.76,22.76,0,0,1-11.82-3.09l-1.69-1a1.18,1.18,0,0,1,.6-2.19H211c.89,0,1.78,0,2.66-.09A1.17,1.17,0,0,1,214.31,355.65ZM230,380.52c-1.1.58-2.27,1.16-3.51,1.78-1,.51-2.1,1-3.2,1.61l-20,10.27a10.17,10.17,0,0,1-9.47,0l-20-10.27c-1.12-.58-2.21-1.11-3.25-1.63s-1.82-.9-2.66-1.34a14.62,14.62,0,0,1-5.62-20.74l0-.09a18.22,18.22,0,0,0,2.46-7.25A2.55,2.55,0,0,1,168.7,351l17.71,10.48a28.19,28.19,0,0,0,14.34,3.86h.46a28.12,28.12,0,0,0,14.68-4.21l13.4-8.38a2.55,2.55,0,0,1,3.84,1.6l.15.63a20.37,20.37,0,0,0,2.31,5.88A14.13,14.13,0,0,1,230,380.52Zm29.12-54.47h0L259,328c-1.1,14.15-8.85,25.55-9,25.7l0,0-2.57,3.85a4.47,4.47,0,0,1-7.72-.48,15.62,15.62,0,0,1,1.16-15.58L257,317.11a1.3,1.3,0,0,1,2.39.76ZM269.51,68c.22.08,18.38,6.34,34.69,32.86,9.14,14.85,21.58,27.63,31.37,36.45a4.47,4.47,0,0,1-3.25,7.79,7.2,7.2,0,0,0-5.24,1.79A8.27,8.27,0,0,0,326,158.54c6.06,7.17,15.43,20.66,10.08,30.48a24.61,24.61,0,0,1-6.41,7.83c-11.37,8.77-20.25,22.15-25,37.67a65.16,65.16,0,0,1-3.74,9.7,3.29,3.29,0,0,1-6.23-1.6c.11-2.54.12-4.63.12-6.11v-.62A25.43,25.43,0,0,1,295,233l1.09-12.45a23.62,23.62,0,0,1,.8-3.88,2.4,2.4,0,0,0-.55-2.3,2.76,2.76,0,0,0-4.76,1,29.29,29.29,0,0,0-.91,4.51l-1.09,12.45a31.77,31.77,0,0,0-.22,3.55v.62a104.41,104.41,0,0,1-1.92,21.1.61.61,0,0,0-.05.12,2.57,2.57,0,0,0-.06.4c-1.49,6.9-4.08,14.18-8.58,20.2a2.47,2.47,0,0,0-.33,2.49,2.83,2.83,0,0,0,2.59,1.77,2.74,2.74,0,0,0,2.2-1.1,50.37,50.37,0,0,0,6.37-11.77A11.16,11.16,0,0,1,300,262.57h.34c16.25,0,32-10,46-29.36,1.2-1.65,2.35-3.32,3.44-5a2.11,2.11,0,0,1,3.76,1.82c-5.12,15.7-13.74,33.42-28.12,45.78-14.14,12.16-31.88,17.41-52.73,15.6a2.73,2.73,0,1,0-.42,5.44,4.64,4.64,0,0,1,3.49,7.47L269.13,313a3.69,3.69,0,0,1-6.44-1.17c-.38-1.18-.82-2.37-1.32-3.55a2.43,2.43,0,0,0-.77-1,2.73,2.73,0,0,0-4,.61l-4,6a1.69,1.69,0,0,1-3.09-.83,37.81,37.81,0,0,0-6.55-18.5L219,258.9A22.29,22.29,0,0,0,200.46,249h-.25A21.88,21.88,0,0,0,182,258.78l-23.13,34.78a37.71,37.71,0,0,0-7.63,24.78,1.68,1.68,0,0,1-3.09,1l-7.64-11.56a2.47,2.47,0,0,0-.91-.85,2.76,2.76,0,0,0-3.84,1.35l-.31.74a3.73,3.73,0,0,1-6.6.5l-3.77-6.08a4.27,4.27,0,0,1,3.47-6.51l2-.07a2.73,2.73,0,1,0-.42-5.44c-20.84,1.8-38.58-3.44-52.73-15.6-14.34-12.32-22.94-30-28.07-45.64a2.11,2.11,0,0,1,3.76-1.82q1.59,2.43,3.34,4.85c14.1,19.51,29.92,29.49,46.28,29.36a10.94,10.94,0,0,1,10.4,7,50.21,50.21,0,0,0,6.43,11.91,2.72,2.72,0,0,0,2.19,1.1,2.82,2.82,0,0,0,2.59-1.77,2.47,2.47,0,0,0-.33-2.49c-4.5-6-7.08-13.29-8.57-20.19a2,2,0,0,0-.07-.4s0-.07,0-.11a104.09,104.09,0,0,1-1.93-21.12v-.62a29.68,29.68,0,0,0-.22-3.55l-1.09-14.07a29.75,29.75,0,0,0-1-4.76,2.36,2.36,0,0,0-1.71-1.64,2.77,2.77,0,0,0-3.46,3.39,24.57,24.57,0,0,1,.73,3.67L107.73,233a25.57,25.57,0,0,1,.19,2.92v.62c0,2.21,0,5.79.36,10.15a3.29,3.29,0,0,1-6,2.17c-2.4-3.31-4.59-8.11-6.48-14.31-4.74-15.52-13.61-28.9-25-37.67a24.45,24.45,0,0,1-6.4-7.83c-5.35-9.81,4-23.29,10.06-30.46A8,8,0,0,0,76.38,152a8.23,8.23,0,0,0-8.15-7h-2a4.1,4.1,0,0,1-2.78-7.13c9.71-8.93,22.64-22.1,32.77-37,19.26-28.36,34.87-31.63,35.17-31.69a2.73,2.73,0,0,0-1.1-5.35c-.49.1-4.3.55-14.08,7.69a23.57,23.57,0,0,1-31.49-3.31l-2-2.19a6.31,6.31,0,0,1,.38-8.67c4.15-4.26,7.4-12-.65-24.77-5.7-9-15.5-17.12-29.12-24l-1.37-.69a1.08,1.08,0,0,1,.47-2l17.93-.4A39.27,39.27,0,0,1,104.2,22.64a34.5,34.5,0,0,1,3.89,7.65l.2.56a39.83,39.83,0,0,0,9.55,14.87,34.49,34.49,0,0,0,8.26,6A37.88,37.88,0,0,0,163,50.24L189.7,34.13l-1.55,3.18a5.39,5.39,0,0,0,.2,5.21,5.61,5.61,0,0,0,7.85,1.9l13.85-8.79-.59.87a6,6,0,0,0-.42,6.17,6.21,6.21,0,0,0,8.61,2.72l3.93-2.15a8.82,8.82,0,0,1,12.15,3.66,18.3,18.3,0,0,0,4.32,5.61,18,18,0,0,0,9.88,4.25l4.71.54a21.54,21.54,0,0,0,2.91.14,40.43,40.43,0,0,0,36.92-26.59l.2-.56a34.67,34.67,0,0,1,3.88-7.65A39.34,39.34,0,0,1,330.31,5.47l10.17.23a2.75,2.75,0,0,1,1.29,5.14c-9.15,5.14-18.9,12.34-24.87,21.79-8,12.76-4.79,20.51-.65,24.77A6.21,6.21,0,0,1,316,66l-1.62,1.65a23.54,23.54,0,0,1-30.79,2.48c-8.94-6.61-11.84-7.14-12.29-7.31a2.35,2.35,0,0,0-2.26.12A2.79,2.79,0,0,0,269.51,68Z" transform="translate(-24.4 0)"/><path d="M232.3,65.32a2.82,2.82,0,0,0-2.58,2.88v9a3.12,3.12,0,0,1-5.61,1.89h0A8.2,8.2,0,0,0,209.6,81.2l-7.37,22.53L201,95.9a8.32,8.32,0,0,0-6.2-6.81,8.19,8.19,0,0,0-6.07.73l.28-5a15.31,15.31,0,0,0-4-11.47,15,15,0,0,0-15.86-3.86l-10,3.51a2.77,2.77,0,0,0-1.87,3,2.73,2.73,0,0,0,3.61,2.23l10.05-3.54A9.38,9.38,0,0,1,180,76.21a9.75,9.75,0,0,1,3.53,8.19l-.73,12.7a2.83,2.83,0,0,0,1.42,2.69,2.73,2.73,0,0,0,3.47-.76l2.81-3.71a2.69,2.69,0,0,1,2.88-.95,2.93,2.93,0,0,1,2.19,2.39l3,19a2.73,2.73,0,0,0,2.45,2.32h.25a2.73,2.73,0,0,0,2.59-1.88L214.75,83a2.88,2.88,0,0,1,2.09-2,2.69,2.69,0,0,1,2.81,1.14l.08.11,10.49,13.75a2.78,2.78,0,0,0,2.36,1.15,2.72,2.72,0,0,0,2.6-2.72V68A2.73,2.73,0,0,0,232.3,65.32Z" transform="translate(-24.4 0)"/><path d="M253,181.7a.48.48,0,0,0,0,.12,9.5,9.5,0,0,0,.4,5.59,9,9,0,0,0,.6,1.25,2.88,2.88,0,0,0,.23.74l0,.11a31.59,31.59,0,0,0,19.22,16.29,2.53,2.53,0,0,0,.81.12,2.8,2.8,0,0,0,2.71-2.13,2.87,2.87,0,0,0-2-3.38,25.87,25.87,0,0,1-11.17-6.88h.07a24.37,24.37,0,0,0,14.34-5,15.14,15.14,0,0,0,4.86-6.64,12.29,12.29,0,0,0-5.41-15.57,13,13,0,0,0-10.36-1.14,1.77,1.77,0,0,1-2-2.69,37.79,37.79,0,0,1,6.75-7.33l.08-.06a2.84,2.84,0,0,0,.74-3.51,2.8,2.8,0,0,0-4.27-.85l-.13.11A43.19,43.19,0,0,0,253,181.7ZM265.74,173a6.66,6.66,0,0,1,5.39-2.82,7.63,7.63,0,0,1,3.78,1,6.64,6.64,0,0,1,3,8.59,9.62,9.62,0,0,1-3,4.24c-4.13,3.06-9.18,4.42-13.51,3.66a3.63,3.63,0,0,1-2.8-2.33,3.87,3.87,0,0,1,.54-3.81Z" transform="translate(-24.4 0)"/><path d="M146.49,190.54l.06-.11a3.25,3.25,0,0,0,.23-.73,10.28,10.28,0,0,0,.6-1.25,9.42,9.42,0,0,0,.39-5.59s0-.08,0-.12a43.21,43.21,0,0,0-15.52-30.81l-.07-.06a2.85,2.85,0,0,0-3.59-.1,2.81,2.81,0,0,0-.06,4.36l.14.11a36.87,36.87,0,0,1,6.74,7.33,1.76,1.76,0,0,1-2,2.68,13,13,0,0,0-10.35,1.15A12.26,12.26,0,0,0,117.65,183a15.15,15.15,0,0,0,4.85,6.65,24.45,24.45,0,0,0,14.35,5h.07a26,26,0,0,1-11.17,6.87,2.89,2.89,0,0,0-2,3.39,2.8,2.8,0,0,0,2.72,2.13,2.84,2.84,0,0,0,.81-.12A31.53,31.53,0,0,0,146.49,190.54Zm-20.65-5.44a9.67,9.67,0,0,1-3-4.25,6.65,6.65,0,0,1,3-8.59,7.69,7.69,0,0,1,3.77-1A6.63,6.63,0,0,1,135,174l6.6,8.57a3.9,3.9,0,0,1,.54,3.81,3.66,3.66,0,0,1-2.8,2.33C135,189.51,130,188.15,125.84,185.1Z" transform="translate(-24.4 0)"/></svg>